<svg xmlns="http://www.w3.org/2000/svg" viewBox="0 0 214 236">
	<defs>
		<style>
			path {
				fill: #f5f5f5;
			}
			.a {
				fill: #fcfcfc;
			}
		</style>
	</defs>
	<path d="M17.25,0H17c0,.13,0,.26,0,.39C17.08.26,17.17.13,17.25,0Z" />
	<path d="M3,.69C3,.63,3,.57,3,.5H3A2.73,2.73,0,0,0,3,0H0V3.5a3,3,0,0,0,.8-.12A3,3,0,0,0,3,.69Z" />
	<path d="M197,0h-.28l.26.39C197,.26,197,.13,197,0Z" />
	<path d="M211,.5h0c0,.07,0,.13,0,.19a3,3,0,0,0,2.19,2.69,2.9,2.9,0,0,0,.79.12V0h-2.95a2.73,2.73,0,0,0-.05.5Z" />
	<path class="a" d="M10.49,12h0A108.89,108.89,0,0,1,17.3,0h-.05c-.08.13-.17.26-.26.39A106.49,106.49,0,0,0,10.49,12Z" />
	<path class="a" d="M203.52,12.06h0A108.08,108.08,0,0,0,197,.39L196.75,0h-.05A106.5,106.5,0,0,1,203.52,12.06Z" />
	<path d="M10.52,12c1.78.17,3.54.37,5.28.62A102.86,102.86,0,0,1,23.34,0h-6A108.89,108.89,0,0,0,10.52,12Z" />
	<path d="M198.27,12.73c1.74-.27,3.49-.49,5.25-.67A106.5,106.5,0,0,0,196.7,0h-6A101.94,101.94,0,0,1,198.27,12.73Z" />
	<path class="a" d="M32,16.14h0A85.93,85.93,0,0,1,43.75,0h0A85.76,85.76,0,0,0,32,16.14Z" />
	<path class="a" d="M181.37,16.76h0A86.39,86.39,0,0,0,169.3,0h-.05A86.14,86.14,0,0,1,181.37,16.76Z" />
	<path d="M32,16.15c1.63.49,3.25,1,4.84,1.59A81.32,81.32,0,0,1,50.76,0h-7A85.93,85.93,0,0,0,32,16.15Z" />
	<path d="M176.58,18.46c1.58-.6,3.17-1.17,4.79-1.7A86.14,86.14,0,0,0,169.25,0h-7A81.32,81.32,0,0,1,176.58,18.46Z" />
	<path class="a" d="M51.54,24.25h0A64.88,64.88,0,0,1,78.31,0h0A64.77,64.77,0,0,0,51.54,24.25Z" />
	<path class="a" d="M162.06,25.29h0A64.73,64.73,0,0,0,134.74,0h-.05A65,65,0,0,1,162.06,25.29Z" />
	<path d="M51.56,24.26q2.2,1.18,4.35,2.46A59.71,59.71,0,0,1,93.27,0h-15A64.88,64.88,0,0,0,51.56,24.26Z" />
	<path d="M157.77,27.86q2.11-1.34,4.29-2.57A65,65,0,0,0,134.69,0h-15A59.69,59.69,0,0,1,157.77,27.86Z" />
	<path class="a" d="M104.54,14.55A43.46,43.46,0,0,0,69,35.93h0A43.51,43.51,0,0,1,104.54,14.55Z" />
	<path class="a" d="M144.83,37.45h0a43.5,43.5,0,0,0-36.36-22.89A43.57,43.57,0,0,1,144.83,37.45Z" />
	<path
		d="M69,35.94c1.31,1.08,2.6,2.19,3.85,3.32A38.48,38.48,0,0,1,141,40.93c1.25-1.19,2.52-2.35,3.83-3.48a43.57,43.57,0,0,0-36.35-22.9c-.66,0-1.32-.05-2-.05s-1.31,0-2,.05A43.51,43.51,0,0,0,69,35.94Z" />
	<path class="a" d="M104.87,36.53A22,22,0,0,0,85,52.1h0A22.05,22.05,0,0,1,104.87,36.53Z" />
	<path class="a" d="M107.13,36.53a22,22,0,0,1,20.73,19.53h0A22,22,0,0,0,107.13,36.53Z" />
	<path
		d="M107.13,36.53c-.37,0-.75,0-1.13,0s-.76,0-1.13,0A22.05,22.05,0,0,0,85,52.1c1.43,1.79,2.79,3.63,4.1,5.5A17,17,0,1,1,117.47,71l1.37.14a107.08,107.08,0,0,1,9-15.09A22,22,0,0,0,107.13,36.53Z" />
	<path
		d="M105.21,61.38a2.9,2.9,0,0,0,.79.12,3,3,0,0,0,.8-.12A3,3,0,0,0,109,58.69c0-.06,0-.12,0-.19h0a3,3,0,0,0-6,0h0c0,.07,0,.13,0,.19A3,3,0,0,0,105.21,61.38Z" />
	<path class="a" d="M0,11.51Z" />
	<path class="a"
		d="M32,16.15h0A108.07,108.07,0,0,0,15.8,12.58c-1.74-.25-3.5-.45-5.28-.62h0c-3.29-.3-6.62-.46-10-.46A107.71,107.71,0,0,1,96.93,71h0A107.32,107.32,0,0,0,89.05,57.6c-1.31-1.87-2.67-3.71-4.1-5.5h0A107,107,0,0,0,72.88,39.26C71.63,38.13,70.34,37,69,35.94h0a107.48,107.48,0,0,0-13.11-9.21q-2.14-1.27-4.35-2.46h0a107,107,0,0,0-14.71-6.51C35.24,17.17,33.62,16.64,32,16.15Z" />
	<path d="M91.64,71.6c1.75-.25,3.52-.46,5.29-.63A107.71,107.71,0,0,0,.5,11.5H0v5H.5A102.71,102.71,0,0,1,91.64,71.6Z" />
	<path class="a" d="M73.78,75.74h0A85.44,85.44,0,0,0,0,32.51H0A85.56,85.56,0,0,1,73.78,75.74Z" />
	<path d="M69,77.43c1.59-.6,3.18-1.16,4.8-1.69A85.56,85.56,0,0,0,0,32.51v5A80.5,80.5,0,0,1,69,77.43Z" />
	<path class="a" d="M54.59,84.14l0,0A64,64,0,0,0,0,53.5,64,64,0,0,1,54.59,84.14Z" />
	<path d="M50.29,86.68c1.41-.88,2.85-1.73,4.3-2.54A64,64,0,0,0,0,53.5v5A59,59,0,0,1,50.29,86.68Z" />
	<path class="a" d="M37.32,96.18h0A43,43,0,0,0,0,74.5,43,43,0,0,1,37.32,96.18Z" />
	<path d="M33.51,99.6q1.86-1.75,3.81-3.42A43,43,0,0,0,0,74.5v5A38,38,0,0,1,33.51,99.6Z" />
	<path class="a" d="M21.52,112.94h0A22,22,0,0,0,0,95.5,22,22,0,0,1,21.52,112.94Z" />
	<path d="M10.57,130.79l-.21.16h.13Z" />
	<path d="M17,117.5a18.21,18.21,0,0,1-.14,2.1c1.47-2.28,3-4.5,4.66-6.66A22,22,0,0,0,0,95.5v5A17,17,0,0,1,17,117.5Z" />
	<path d="M3,117.69c0-.06,0-.12,0-.19H3a3,3,0,0,0-3-3v6a3,3,0,0,0,.8-.12A3,3,0,0,0,3,117.69Z" />
	<path class="a"
		d="M203.52,12.06c-1.76.18-3.51.4-5.25.67a105,105,0,0,0-16.87,4h0c-1.62.53-3.21,1.1-4.79,1.7a105.46,105.46,0,0,0-14.5,6.82h0q-2.17,1.23-4.29,2.57a106.47,106.47,0,0,0-12.93,9.58h0c-1.31,1.13-2.58,2.29-3.83,3.48a106.43,106.43,0,0,0-13.14,15.13h0a107.08,107.08,0,0,0-9,15.09h0A106.63,106.63,0,0,1,214,11.51h0c-3.52,0-7,.2-10.44.55Z" />
	<path d="M118.87,71.16c1.76.19,3.51.42,5.24.7A101.59,101.59,0,0,1,214,16.51v-5A106.63,106.63,0,0,0,118.87,71.16Z" />
	<path class="a" d="M140.19,75.73h0A85.56,85.56,0,0,1,214,32.51h0A85.44,85.44,0,0,0,140.19,75.73Z" />
	<path d="M140.22,75.74c1.62.53,3.21,1.09,4.8,1.69a80.5,80.5,0,0,1,69-39.92v-5A85.56,85.56,0,0,0,140.22,75.74Z" />
	<path class="a" d="M159.55,84.22h0A64.51,64.51,0,0,1,214,53.51h0A64.47,64.47,0,0,0,159.55,84.22Z" />
	<path d="M159.58,84.23q2.17,1.23,4.29,2.55A59.54,59.54,0,0,1,214,58.51v-5A64.51,64.51,0,0,0,159.58,84.23Z" />
	<path class="a" d="M176.67,96.17h0A43,43,0,0,1,214,74.5,43,43,0,0,0,176.67,96.17Z" />
	<path d="M176.68,96.18q1.95,1.66,3.81,3.42A38,38,0,0,1,214,79.5v-5A43,43,0,0,0,176.68,96.18Z" />
	<path class="a" d="M192.48,112.93h0A22,22,0,0,1,214,95.5,22,22,0,0,0,192.48,112.93Z" />
	<path d="M203.76,131l-.33-.25c0,.09.08.18.13.27Z" />
	<path
		d="M192.48,112.94c1.63,2.16,3.19,4.38,4.66,6.66a18.21,18.21,0,0,1-.14-2.1,17,17,0,0,1,17-17v-5A22,22,0,0,0,192.48,112.94Z" />
	<path d="M211,117.5h0c0,.07,0,.13,0,.19a3,3,0,0,0,2.19,2.69,2.9,2.9,0,0,0,.79.12v-6A3,3,0,0,0,211,117.5Z" />
	<path class="a"
		d="M109.91,70.54a107.18,107.18,0,0,1,93.61,60.52h0c-.05-.09-.09-.18-.13-.27a103.84,103.84,0,0,0-6.29-11.19c-1.47-2.28-3-4.5-4.66-6.66h0a107.53,107.53,0,0,0-12-13.33q-1.86-1.75-3.81-3.42h0a107.61,107.61,0,0,0-12.8-9.39q-2.12-1.32-4.29-2.55h0A105.67,105.67,0,0,0,145,77.43c-1.59-.6-3.18-1.16-4.8-1.69h0a106.18,106.18,0,0,0-16.08-3.87c-1.73-.28-3.48-.51-5.24-.7h0L117.47,71Q113.72,70.65,109.91,70.54Z" />
	<path class="a"
		d="M10.52,131a107.18,107.18,0,0,1,93.57-60.42c-2.39.06-4.77.21-7.12.43h0c-1.77.17-3.54.38-5.29.63a106.74,106.74,0,0,0-17.83,4.13h0c-1.62.53-3.21,1.09-4.8,1.69a106.14,106.14,0,0,0-14.37,6.69l0,0c-1.45.81-2.89,1.66-4.3,2.54a108,108,0,0,0-13,9.49h0q-1.95,1.66-3.81,3.42a107.53,107.53,0,0,0-12,13.33h0c-1.63,2.16-3.19,4.38-4.66,6.66a103.84,103.84,0,0,0-6.29,11.19l-.08.17Z" />
	<path
		d="M104.09,70.54A107.18,107.18,0,0,0,10.52,131c1.78.17,3.53.37,5.28.62a102.19,102.19,0,0,1,182.47.15c1.74-.27,3.49-.49,5.25-.67a107.18,107.18,0,0,0-93.61-60.52c-1,0-1.94,0-2.91,0S105.06,70.51,104.09,70.54Z" />
	<path class="a" d="M103.45,91.58A85.43,85.43,0,0,0,32,135.14h0A85.53,85.53,0,0,1,103.45,91.58Z" />
	<path class="a" d="M109.54,91.58a85.55,85.55,0,0,1,71.83,44.18h0A85.46,85.46,0,0,0,109.54,91.58Z" />
	<path
		d="M109.54,91.58c-1,0-2-.08-3-.08s-2,0-3,.08A85.53,85.53,0,0,0,32,135.15c1.63.49,3.25,1,4.84,1.59a80.43,80.43,0,0,1,139.75.72c1.58-.6,3.17-1.17,4.79-1.7A85.55,85.55,0,0,0,109.54,91.58Z" />
	<path class="a"
		d="M106.5,112.5a64.43,64.43,0,0,0-55,30.75h0a64.45,64.45,0,0,1,110.5,1h0A64.44,64.44,0,0,0,106.5,112.5Z" />
	<path
		d="M106.5,112.5a64.5,64.5,0,0,0-54.94,30.76q2.2,1.19,4.35,2.46a59.45,59.45,0,0,1,101.86,1.14q2.11-1.34,4.29-2.57A64.52,64.52,0,0,0,106.5,112.5Z" />
	<path class="a"
		d="M106.5,133.5A43.46,43.46,0,0,0,69,154.93h0a43.47,43.47,0,0,1,75.8,1.51h0A43.5,43.5,0,0,0,106.5,133.5Z" />
	<path
		d="M106.5,133.5A43.5,43.5,0,0,0,69,154.94c1.31,1.08,2.6,2.19,3.85,3.32A38.48,38.48,0,0,1,141,159.93c1.25-1.19,2.52-2.35,3.83-3.48A43.54,43.54,0,0,0,106.5,133.5Z" />
	<path class="a"
		d="M106.5,154.5A22.5,22.5,0,0,0,84.83,171h0a22.5,22.5,0,0,1,43.94,2.86h0A22.51,22.51,0,0,0,106.5,154.5Z" />
	<path
		d="M106.5,154.5A22.55,22.55,0,0,0,84.83,171Q87,173.7,89,176.57a17.49,17.49,0,0,1,35,.43,17.72,17.72,0,0,1-.75,5.07c1.71-2.84,3.56-5.6,5.52-8.26A22.53,22.53,0,0,0,106.5,154.5Z" />
	<path
		d="M106.5,174a3,3,0,0,0-3,3h0c0,.07,0,.13,0,.19a3,3,0,0,0,2.19,2.69,2.9,2.9,0,0,0,.79.12,3,3,0,0,0,.8-.12,3,3,0,0,0,2.18-2.69c0-.06,0-.12,0-.19h0A3,3,0,0,0,106.5,174Z" />
	<path class="a"
		d="M89,176.57q-2-2.88-4.19-5.62h0a107.8,107.8,0,0,0-12-12.69c-1.25-1.13-2.54-2.24-3.85-3.32h0a107.48,107.48,0,0,0-13.11-9.21q-2.14-1.28-4.35-2.46h0a107,107,0,0,0-14.71-6.51c-1.59-.57-3.21-1.1-4.84-1.59h0a108.07,108.07,0,0,0-16.16-3.56c-1.75-.25-3.5-.45-5.28-.62h-.16q-4.15-.37-8.38-.43a107.73,107.73,0,0,1,94,57.54h0A107.18,107.18,0,0,0,89,176.57Z" />
	<path
		d="M90.65,188.74c1.76-.27,3.53-.49,5.31-.68A107.73,107.73,0,0,0,2,130.52l-1.48,0H0v5H.5A102.73,102.73,0,0,1,90.65,188.74Z" />
	<path class="a" d="M.26,151.52a85.5,85.5,0,0,1,72.56,41.56h0A85.42,85.42,0,0,0,.26,151.52Z" />
	<path d="M68,194.82q2.37-.93,4.79-1.74A85.5,85.5,0,0,0,.26,151.52H0v5A80.53,80.53,0,0,1,68,194.82Z" />
	<path class="a" d="M.65,172.52a64,64,0,0,1,53,29.19h0A63.91,63.91,0,0,0,.65,172.52Z" />
	<path d="M49.41,204.31c1.4-.9,2.82-1.76,4.27-2.6a64,64,0,0,0-53-29.19l-.65,0v5A59,59,0,0,1,49.41,204.31Z" />
	<path class="a" d="M.93,193.52a43,43,0,0,1,35.66,20.42h0A43,43,0,0,0,.93,193.52Z" />
	<path d="M32.82,217.39c1.23-1.18,2.48-2.33,3.77-3.45A43,43,0,0,0,.93,193.52l-.93,0v5A38,38,0,0,1,32.82,217.39Z" />
	<path class="a" d="M.66,214.52a22,22,0,0,1,20.52,16.06h0A22,22,0,0,0,.66,214.52Z" />
	<path d="M21.18,230.58A22,22,0,0,0,.66,214.52l-.66,0v5A17,17,0,0,1,17,236h.43Q19.22,233.23,21.18,230.58Z" />
	<path d="M0,233.5V236H3A3,3,0,0,0,0,233.5Z" />
	<path class="a"
		d="M203.52,131.06c-1.76.18-3.51.4-5.25.67a105,105,0,0,0-16.87,4h0c-1.62.53-3.21,1.1-4.79,1.7a105.46,105.46,0,0,0-14.5,6.82h0q-2.17,1.23-4.29,2.57a106.47,106.47,0,0,0-12.93,9.58h0c-1.31,1.13-2.58,2.29-3.83,3.48a106.85,106.85,0,0,0-12.23,13.88h0c-2,2.66-3.81,5.42-5.52,8.26-1.22,2-2.38,4.09-3.47,6.19h0A106.61,106.61,0,0,1,213,130.52c-3.12,0-6.22.21-9.28.52l-.2,0Z" />
	<path d="M119.82,188.27q2.66.31,5.25.76A101.58,101.58,0,0,1,214,135.51v-5h-1A106.61,106.61,0,0,0,119.82,188.27Z" />
	<path class="a" d="M213.74,151.52a85.42,85.42,0,0,0-72.59,41.55h0A85.5,85.5,0,0,1,213.74,151.52Z" />
	<path d="M141.18,193.08q2.41.81,4.79,1.74a80.53,80.53,0,0,1,68-38.31v-5h-.26A85.5,85.5,0,0,0,141.18,193.08Z" />
	<path class="a" d="M213.85,172.52a64.41,64.41,0,0,0-53.39,29.28h0A64.46,64.46,0,0,1,213.85,172.52Z" />
	<path d="M213.85,172.52a64.46,64.46,0,0,0-53.36,29.29c1.44.84,2.86,1.7,4.26,2.6A59.49,59.49,0,0,1,214,177.51v-5Z" />
	<path class="a" d="M213.08,193.52a43,43,0,0,0-35.68,20.41h0A43,43,0,0,1,213.08,193.52Z" />
	<path d="M177.41,213.94c1.29,1.12,2.54,2.27,3.77,3.45A38,38,0,0,1,214,198.5v-5l-.92,0A43,43,0,0,0,177.41,213.94Z" />
	<path class="a" d="M213.34,214.52a22,22,0,0,0-20.53,16.06h0A22,22,0,0,1,213.34,214.52Z" />
	<path d="M192.82,230.58q2,2.64,3.78,5.42H197a17,17,0,0,1,17-16.5v-5l-.66,0A22,22,0,0,0,192.82,230.58Z" />
	<path d="M211.05,236H214v-2.5A3,3,0,0,0,211.05,236Z" />
	<path class="a"
		d="M104.24,187.54c-2.78.07-5.52.24-8.24.52h0c-1.78.19-3.55.41-5.31.68a106.55,106.55,0,0,0-17.8,4.33h0q-2.41.81-4.79,1.74A107.29,107.29,0,0,0,53.7,201.7h0c-1.45.84-2.87,1.7-4.27,2.6a106.81,106.81,0,0,0-12.81,9.62h0c-1.29,1.12-2.54,2.27-3.77,3.45a108,108,0,0,0-11.63,13.19h0q-2,2.64-3.78,5.42h.05A107,107,0,0,1,104.24,187.54Z" />
	<path class="a"
		d="M192.82,230.58h0a108,108,0,0,0-11.63-13.19c-1.23-1.18-2.48-2.33-3.77-3.45h0a107,107,0,0,0-12.65-9.52c-1.4-.9-2.82-1.76-4.26-2.6h0a105.62,105.62,0,0,0-14.49-7q-2.37-.93-4.79-1.74h0a106,106,0,0,0-16.08-4q-2.59-.45-5.25-.76h0c-3.29-.39-6.64-.64-10-.72A107,107,0,0,1,196.55,236h0Q194.78,233.23,192.82,230.58Z" />
	<path
		d="M109.76,187.54c-.92,0-1.84,0-2.76,0s-1.84,0-2.76,0A107,107,0,0,0,17.45,236h6a101.91,101.91,0,0,1,167,0h6A107,107,0,0,0,109.76,187.54Z" />
	<path class="a" d="M104.21,208.56A85.25,85.25,0,0,0,43.7,236h0A85.29,85.29,0,0,1,104.21,208.56Z" />
	<path class="a" d="M108.78,208.56A85.31,85.31,0,0,1,169.25,236h.05A85.27,85.27,0,0,0,108.78,208.56Z" />
	<path
		d="M108.78,208.56c-.76,0-1.52-.06-2.28-.06s-1.53,0-2.29.06A85.29,85.29,0,0,0,43.75,236h7a80.29,80.29,0,0,1,111.48,0h7A85.31,85.31,0,0,0,108.78,208.56Z" />
	<path class="a" d="M104.06,230.55a63.51,63.51,0,0,0-24,5.45h0A63.39,63.39,0,0,1,104.06,230.55Z" />
	<path class="a" d="M106,235.5a59,59,0,0,0-7.56.5h15.12A59,59,0,0,0,106,235.5Z" />
	<path class="a" d="M108,230.55a63.68,63.68,0,0,1,24,5.45h0A63.64,63.64,0,0,0,108,230.55Z" />
	<path
		d="M108,230.55c-.65,0-1.29-.05-2-.05s-1.3,0-1.94.05a63.39,63.39,0,0,0-24,5.45H98.44a57.4,57.4,0,0,1,15.12,0h18.35A63.68,63.68,0,0,0,108,230.55Z" />
</svg>